<?xml version="1.0" standalone="no"?>
<!DOCTYPE svg PUBLIC "-//W3C//DTD SVG 20010904//EN"
 "http://www.w3.org/TR/2001/REC-SVG-20010904/DTD/svg10.dtd">
<svg version="1.0" xmlns="http://www.w3.org/2000/svg"
 width="1500.000000pt" height="343.000000pt" viewBox="0 0 1500.000000 343.000000"
 preserveAspectRatio="xMidYMid meet">

<g transform="translate(0.000000,343.000000) scale(0.100000,-0.100000)"
fill="#000000" stroke="none">
<path d="M695 2897 c-92 -36 -155 -108 -175 -200 -8 -37 -10 -357 -8 -1097 l3
-1045 27 -50 c31 -59 67 -94 128 -126 43 -23 55 -24 288 -27 l242 -4 0 161 0
161 -80 0 c-57 0 -80 4 -80 13 0 25 64 122 111 169 l49 49 0 109 c0 72 -4 110
-11 110 -30 0 -229 -174 -229 -201 0 -5 -4 -9 -10 -9 -6 0 -10 90 -10 250 l0
250 130 0 130 0 0 89 0 89 -43 25 c-152 90 -246 292 -217 473 21 132 110 268
217 331 l43 25 0 234 0 234 -237 -1 c-157 0 -248 -5 -268 -12z"/>
<path d="M10290 1630 l0 -940 30 0 30 0 0 940 0 940 -30 0 -30 0 0 -940z"/>
<path d="M11540 1733 c0 -520 4 -851 10 -873 5 -20 16 -45 25 -55 13 -18 14
83 15 873 l0 892 -25 0 -25 0 0 -837z"/>
<path d="M12600 2465 l0 -105 25 0 25 0 0 105 0 105 -25 0 -25 0 0 -105z"/>
<path d="M13704 2504 c-67 -67 -69 -77 -69 -449 0 -325 0 -331 23 -377 13 -26
38 -60 55 -74 l32 -27 3 242 c1 132 1 350 0 484 l-3 242 -41 -41z"/>
<path d="M13642 1042 l3 -189 30 -48 c17 -26 40 -55 53 -63 l22 -14 0 251 0
251 -56 0 -56 0 4 -188z"/>
</g>
</svg>
